<svg width="35" height="20" viewBox="0 0 35 20" fill="none" xmlns="http://www.w3.org/2000/svg">
<path fill-rule="evenodd" clip-rule="evenodd" d="M17.1151 5.3845C17.1151 4.8845 16.692 4.46143 16.192 4.46143H4.65355C4.15355 4.46143 3.73047 4.8845 3.73047 5.3845C3.73047 5.8845 4.15355 6.30758 4.65355 6.30758H16.192C16.7305 6.30758 17.1151 5.8845 17.1151 5.3845Z" fill="#3F6DD6"/>
<path fill-rule="evenodd" clip-rule="evenodd" d="M15.6145 9.80784C15.6145 9.30784 15.1914 8.88477 14.6914 8.88477H8.61448C8.11448 8.88477 7.69141 9.30784 7.69141 9.80784C7.69141 10.3078 8.11448 10.7309 8.61448 10.7309H14.6914C15.2299 10.7309 15.6145 10.3078 15.6145 9.80784Z" fill="#3F6DD6"/>
<path fill-rule="evenodd" clip-rule="evenodd" d="M24.6538 0.0385742H0.923077C0.423077 0.0385742 0 0.461651 0 0.961651C0 1.46165 0.423077 1.88473 0.923077 1.88473H24.6923C29.1923 1.88473 32.8077 5.53857 32.8077 10.0001C32.8077 14.4617 29.1538 18.1155 24.6923 18.1155C21.6538 18.1155 18.8846 16.4232 17.4615 13.7309C17.3077 13.4232 17 13.2309 16.6538 13.2309H11.9231C11.4231 13.2309 11 13.654 11 14.154C11 14.654 11.4231 15.077 11.9231 15.077H16.0769C17.8462 18.1155 21.1154 20.0001 24.6538 20.0001C30.1538 19.9617 34.6154 15.5001 34.6154 10.0001C34.6154 4.50011 30.1538 0.0385742 24.6538 0.0385742Z" fill="#3F6DD6"/>
<path fill-rule="evenodd" clip-rule="evenodd" d="M24.6543 3.5C24.1158 3.5 23.6543 3.96154 23.6543 4.5V10.1923V10.1923C23.6543 10.2692 23.6543 10.3077 23.6543 10.3846V10.3846C23.6543 10.4615 23.6928 10.5 23.6928 10.5769V10.5769C23.7312 10.6154 23.7312 10.6923 23.7697 10.7308V10.7308C23.8081 10.7692 23.8466 10.8462 23.8851 10.8846V10.8846L26.4235 13.4231C26.6158 13.6154 26.8851 13.7308 27.1158 13.7308C27.3851 13.7308 27.6158 13.6154 27.8081 13.4231C28.1928 13.0385 28.1928 12.3846 27.8081 12L25.5389 9.73077V4.5C25.6543 3.96154 25.2312 3.5 24.6543 3.5Z" fill="#3F6DD6"/>
</svg>
