<svg width="26" height="26" viewBox="0 0 26 26" fill="none" xmlns="http://www.w3.org/2000/svg">
<path fill-rule="evenodd" clip-rule="evenodd" d="M9.0819 17.7039H16.9199C17.3533 17.7039 17.7049 17.3523 17.7049 16.9189V9.08092C17.7049 8.64752 17.3533 8.2959 16.9199 8.2959H9.0819C8.6485 8.2959 8.29688 8.64752 8.29688 9.08092V16.9189C8.29688 17.3523 8.6485 17.7039 9.0819 17.7039ZM9.86692 9.86595H16.1349V16.1339H9.86692V9.86595Z" fill="#3F6DD6"/>
<path fill-rule="evenodd" clip-rule="evenodd" d="M22.1831 4.60188C22.1831 4.16848 21.8315 3.81685 21.3981 3.81685H19.3834V0H17.8134V3.81685H13.785V0H12.215V3.81685H8.18662V0H6.61657V3.81685H4.60188C4.16848 3.81685 3.81685 4.16848 3.81685 4.60188V6.61657H0V8.18662H3.81685V12.215H0V13.785H3.81685V17.8134H0V19.3834H3.81685V21.3981C3.81685 21.8315 4.16848 22.1831 4.60188 22.1831H6.61657V26H8.18662V22.1831H12.215V26H13.785V22.1831H17.8134V26H19.3834V22.1831H21.3981C21.8315 22.1831 22.1831 21.8315 22.1831 21.3981V19.3834H26V17.8134H22.1831V13.785H26V12.215H22.1831V8.18662H26V6.61657H22.1831V4.60188ZM20.6131 20.6131H5.3869V5.3869H20.6131V20.6131Z" fill="#3F6DD6"/>
</svg>
