<svg width="30" height="30" viewBox="0 0 30 30" fill="none" xmlns="http://www.w3.org/2000/svg">
<path fill-rule="evenodd" clip-rule="evenodd" d="M16.2443 2.8887L12.1656 0.117918C11.9592 -0.0233996 11.6916 -0.0388463 11.4703 0.0777915C11.2491 0.194429 11.1106 0.423978 11.1106 0.674098V2.85837H5.38022C3.89092 2.85837 2.68359 4.06569 2.68359 5.555V9.4314H4.03191V5.555C4.03191 4.81034 4.63557 4.20668 5.38022 4.20668H11.1106V6.22915C11.1102 6.47873 11.2477 6.7081 11.4681 6.82533C11.6884 6.94256 11.9555 6.92847 12.1622 6.7887L16.2409 4.00443C16.4258 3.87897 16.5365 3.67003 16.5365 3.44657C16.5365 3.22311 16.4258 3.01417 16.2409 2.8887H16.2443ZM12.4521 4.94151V1.93814L14.66 3.44488L12.4521 4.94151Z" fill="#3F6DD6"/>
<path fill-rule="evenodd" clip-rule="evenodd" d="M29.5038 11.7975C29.3874 11.5758 29.1576 11.4369 28.9072 11.4368H26.7263V5.70651C26.7263 4.2172 25.519 3.00988 24.0297 3.00988L20.1836 2.98291V4.33122H24.06C24.8047 4.33122 25.4083 4.93489 25.4083 5.67954V11.4099H23.3858C23.1363 11.4095 22.9069 11.547 22.7897 11.7674C22.6724 11.9877 22.6865 12.2548 22.8263 12.4616L25.5769 16.5672C25.7018 16.752 25.91 16.863 26.133 16.8638C26.3555 16.8638 26.5635 16.7541 26.6892 16.5706L29.4735 12.4919C29.6113 12.2839 29.623 12.0168 29.5038 11.7975ZM26.133 14.9897L24.6364 12.7784H27.6398L26.133 14.9897Z" fill="#3F6DD6"/>
<path fill-rule="evenodd" clip-rule="evenodd" d="M0.670727 18.4616H2.855V24.192C2.855 25.6813 4.06232 26.8886 5.55163 26.8886H9.42803V25.5403H5.55163C4.80697 25.5403 4.20331 24.9366 4.20331 24.192V18.4616H6.22578C6.47536 18.462 6.70473 18.3245 6.82196 18.1041C6.93919 17.8838 6.9251 17.6167 6.78533 17.4099L4.00443 13.3313C3.87953 13.1465 3.6713 13.0354 3.44825 13.0347C3.22584 13.0347 3.01774 13.1444 2.89208 13.3279L0.117918 17.4066C-0.0233996 17.6129 -0.0388463 17.8806 0.0777915 18.1019C0.194429 18.3231 0.423978 18.4616 0.674098 18.4616H0.670727ZM3.45163 14.9088L4.94826 17.1201H1.94488L3.45163 14.9088Z" fill="#3F6DD6"/>
<path fill-rule="evenodd" clip-rule="evenodd" d="M23.8923 27.0638C25.3816 27.0638 26.5889 25.8564 26.5889 24.3671V20.4907H25.2406V24.3671C25.2406 25.1118 24.6369 25.7154 23.8923 25.7154H18.1619V23.693C18.1623 23.4434 18.0248 23.214 17.8044 23.0968C17.5841 22.9796 17.317 22.9937 17.1102 23.1334L13.0046 25.8941C12.8197 26.0196 12.709 26.2285 12.709 26.452C12.709 26.6754 12.8197 26.8844 13.0046 27.0098L17.0799 29.7806C17.2863 29.9219 17.5539 29.9374 17.7752 29.8207C17.9964 29.7041 18.1349 29.4745 18.135 29.2244V27.0536H23.8653L23.8923 27.0638ZM16.8136 27.9604L14.6057 26.4536L16.817 24.957L16.8136 27.9604Z" fill="#3F6DD6"/>
<path fill-rule="evenodd" clip-rule="evenodd" d="M16.6439 10.2305H12.599C11.1097 10.2305 9.90234 11.4378 9.90234 12.9271V16.972C9.90234 18.4613 11.1097 19.6687 12.599 19.6687H16.6439C18.1332 19.6687 19.3405 18.4613 19.3405 16.972V12.9271C19.3405 11.4378 18.1332 10.2305 16.6439 10.2305ZM17.9922 16.972C17.9922 17.7167 17.3886 18.3204 16.6439 18.3204H12.599C11.8543 18.3204 11.2507 17.7167 11.2507 16.972V12.9271C11.2507 12.1824 11.8543 11.5788 12.599 11.5788H16.6439C17.3886 11.5788 17.9922 12.1824 17.9922 12.9271V16.972Z" fill="#3F6DD6"/>
<rect x="12.7012" y="13.0278" width="3.83933" height="3.83933" rx="1.91966" fill="#3F6DD6"/>
</svg>
