<svg width="44" height="24" viewBox="0 0 44 24" fill="none" xmlns="http://www.w3.org/2000/svg">
<g clip-path="url(#clip0_2095_750)">
<rect width="44" height="24" rx="12" fill="#3F6DD6"/>
<path d="M15.5786 16H14.0049L10.1431 9.74268H10.1001L10.127 10.0918C10.1771 10.7578 10.2021 11.3665 10.2021 11.918V16H9.03662V8.14746H10.5942L14.4453 14.3726H14.4775C14.4704 14.2902 14.4561 13.9912 14.4346 13.4756C14.4131 12.9564 14.4023 12.5518 14.4023 12.2617V8.14746H15.5786V16ZM23.0938 16H18.6519V8.14746H23.0938V9.23242H19.9355V11.3701H22.895V12.4443H19.9355V14.9097H23.0938V16ZM33.042 16H31.6455L30.3135 11.3164C30.2562 11.1123 30.1846 10.8187 30.0986 10.4355C30.0127 10.0488 29.9608 9.78027 29.9429 9.62988C29.9071 9.85905 29.848 10.1562 29.7656 10.5215C29.6868 10.8867 29.6206 11.1589 29.5669 11.3379L28.2671 16H26.8706L25.8555 12.0684L24.8242 8.14746H26.1348L27.2573 12.7236C27.4328 13.4577 27.5581 14.1058 27.6333 14.668C27.6727 14.3636 27.7318 14.0234 27.8105 13.6475C27.8893 13.2715 27.9609 12.9671 28.0254 12.7344L29.3037 8.14746H30.5767L31.8872 12.7559C32.0125 13.182 32.145 13.8193 32.2847 14.668C32.3384 14.1559 32.4673 13.5042 32.6714 12.7129L33.7886 8.14746H35.0884L33.042 16Z" fill="white"/>
</g>
<defs>
<clipPath id="clip0_2095_750">
<rect width="44" height="24" fill="white"/>
</clipPath>
</defs>
</svg>
