<svg width="148" height="194" viewBox="0 0 148 194" fill="none" xmlns="http://www.w3.org/2000/svg">
<path fill-rule="evenodd" clip-rule="evenodd" d="M182.213 322.19C182.212 322.543 182.203 322.89 182.189 323.231C182.175 323.576 182.153 323.915 182.126 324.251L182.063 324.863C182.051 325.003 182.037 325.143 182.019 325.283C181.976 325.633 181.924 325.975 181.868 326.307L181.656 327.357C181.571 327.73 181.477 328.094 181.374 328.448L181.112 329.244C181.076 329.354 181.042 329.466 181.002 329.57C180.874 329.914 180.731 330.24 180.583 330.564L180.541 330.665L181.043 330.866L180.494 330.779C180.256 331.283 179.988 331.77 179.704 332.218L179.536 332.453C179.286 332.827 179.013 333.187 178.725 333.526C178.636 333.63 178.545 333.73 178.403 333.882C178.152 334.152 177.891 334.404 177.622 334.641L177.51 334.739C177.435 334.805 177.36 334.872 177.281 334.935C176.852 335.279 176.459 335.554 176.079 335.777L170.434 339.065C172.404 336.281 173.467 332.452 173.479 327.848L174.116 102.688L182.848 97.5987L182.213 322.19ZM151.191 339.965L57.4999 285.712C45.5483 278.79 35.8562 261.954 35.894 248.179L36.5314 22.7084C36.5497 16.1832 38.7371 11.3315 42.6901 9.04252C42.6998 9.03711 42.71 9.03198 42.7202 9.02684C42.7305 9.0217 42.7407 9.01656 42.7505 9.01115C43.0492 8.84131 43.3609 8.69852 43.6737 8.56006C43.7094 8.54457 43.7445 8.52898 43.7795 8.51341C43.8618 8.47679 43.9439 8.44028 44.034 8.40536L44.1289 8.36534C44.3877 8.26582 44.6552 8.18469 44.9238 8.10464C45.1136 8.05163 45.311 7.9997 45.5332 7.94886C45.5666 7.94129 45.6044 7.93155 45.655 7.91641C45.8934 7.86448 46.135 7.81797 46.3798 7.78119C46.6581 7.74225 46.9526 7.71087 47.2697 7.68816C47.3915 7.6795 47.5134 7.67193 47.6375 7.66652L47.6849 7.66436C48.249 7.64489 48.771 7.65354 49.2898 7.69681L49.4851 7.71628C50.0686 7.77253 50.6607 7.8634 51.2442 7.9878L51.4276 8.02783C52.0402 8.16521 52.6614 8.34046 53.2773 8.54708C53.3699 8.57839 53.4636 8.61078 53.5572 8.64317L53.5575 8.64329L53.5577 8.64335C53.8134 8.73314 54.0711 8.82941 54.33 8.93218C54.4301 8.97113 54.5302 9.01284 54.6303 9.05456L54.7053 9.08579C54.9415 9.18423 55.1777 9.28375 55.415 9.39085C55.5164 9.4377 55.6186 9.48742 55.7209 9.53715L55.721 9.5372L55.7211 9.53726L55.7221 9.53772L55.7225 9.53793C55.7732 9.56258 55.8239 9.58723 55.8745 9.61153C56.1269 9.73269 56.3782 9.85384 56.623 9.98041C56.9941 10.173 57.3662 10.3742 57.7415 10.5905L151.433 64.843C152.205 65.2898 152.966 65.782 153.718 66.3088C153.724 66.3131 153.728 66.3164 153.733 66.3196C154.391 66.7815 155.041 67.2737 155.68 67.7919L155.896 67.9682C156.171 68.1941 156.443 68.4378 156.715 68.6817L156.717 68.6828L156.843 68.7955L156.902 68.8485L156.986 68.9234C157.08 69.0065 157.175 69.088 157.27 69.1695C157.432 69.3087 157.594 69.4478 157.752 69.5952L157.953 69.7823C158.168 69.9862 158.382 70.2048 158.597 70.4239L158.705 70.5342L158.805 70.6351C158.84 70.6708 158.875 70.7064 158.91 70.7418C158.967 70.7985 159.024 70.8547 159.08 70.9107L159.205 71.0338C159.395 71.2209 159.586 71.408 159.771 71.604L159.899 71.7392C160.539 72.4272 161.157 73.1282 161.751 73.8465C161.864 73.9824 161.973 74.1258 162.083 74.2695C162.164 74.3752 162.245 74.4811 162.327 74.5843C163.282 75.7839 164.199 77.029 165.053 78.3261C165.289 78.6874 165.517 79.0573 165.742 79.4262L165.793 79.5063C165.86 79.6142 165.927 79.7219 165.994 79.8296C166.214 80.1816 166.434 80.5336 166.643 80.8931L166.956 81.4534C167.091 81.6937 167.22 81.9367 167.349 82.1798L167.349 82.18L167.351 82.1828C167.419 82.3108 167.487 82.4389 167.556 82.5666C167.622 82.691 167.69 82.8147 167.758 82.9385L167.759 82.9397L167.759 82.9403C167.862 83.127 167.965 83.3138 168.061 83.5034L168.156 83.6862C168.981 85.3272 169.711 87.005 170.345 88.698C170.418 88.8887 170.484 89.0789 170.55 89.2693L170.551 89.2697C170.573 89.3349 170.596 89.4 170.619 89.4652L170.638 89.518C170.836 90.0762 171.024 90.6354 171.2 91.1958C171.288 91.4781 171.375 91.7605 171.457 92.0417C171.647 92.6919 171.821 93.3431 171.977 93.9932L171.989 94.0421L172.004 94.0994L172.029 94.1963C172.052 94.2853 172.076 94.3743 172.096 94.4627C172.098 94.4724 172.101 94.4822 172.104 94.4919C172.285 95.287 172.438 96.0799 172.568 96.8696C172.593 97.0185 172.613 97.1659 172.634 97.3132L172.634 97.3142C172.642 97.3701 172.649 97.4261 172.657 97.4821L172.665 97.5392C172.754 98.1418 172.826 98.7411 172.882 99.3371C172.905 99.5719 172.928 99.8077 172.945 100.04C173.002 100.826 173.041 101.607 173.039 102.376L173.035 103.318H173.036L172.4 327.846C172.398 328.629 172.36 329.424 172.288 330.213L172.275 330.339C172.265 330.447 172.248 330.551 172.232 330.656C172.22 330.734 172.208 330.812 172.198 330.892C172.135 331.409 172.07 331.929 171.975 332.42L171.94 332.602C171.922 332.69 171.9 332.773 171.878 332.857C171.861 332.921 171.843 332.985 171.828 333.052C171.72 333.526 171.607 334.002 171.466 334.454L171.367 334.752C171.239 335.137 171.096 335.508 170.945 335.87L170.919 335.933L170.893 335.996C170.853 336.094 170.813 336.193 170.77 336.285L170.713 336.423C170.523 336.829 170.312 337.211 170.092 337.583C170.068 337.624 170.044 337.665 170.02 337.705L170.018 337.708C169.988 337.76 169.957 337.813 169.925 337.866C169.887 337.928 169.849 337.991 169.807 338.055L169.735 338.155C169.725 338.169 169.714 338.182 169.705 338.196C169.455 338.567 169.189 338.921 168.91 339.249C168.839 339.332 168.765 339.413 168.668 339.518L168.6 339.591C168.394 339.813 168.178 340.021 167.956 340.223L167.925 340.251L167.873 340.299C167.845 340.325 167.816 340.351 167.786 340.379C167.77 340.393 167.754 340.407 167.737 340.422L167.713 340.444L167.712 340.444C167.632 340.516 167.553 340.587 167.47 340.653C167.076 340.967 166.668 341.263 166.23 341.516C162.237 343.819 156.897 343.267 151.191 339.965ZM180.171 83.0642C181.867 87.6119 182.791 92.1283 182.845 96.1957C182.845 96.2465 182.846 96.2984 182.847 96.3493L174.617 101.292C174.6 101.131 174.533 100.97 174.466 100.808L174.466 100.808C174.394 100.634 174.322 100.459 174.311 100.284C174.306 100.199 174.266 100.115 174.227 100.03C174.188 99.9462 174.148 99.8623 174.142 99.7785C174.141 99.7599 174.124 99.7419 174.106 99.7239C174.089 99.7062 174.072 99.6885 174.071 99.6703C174.068 99.6384 174.057 99.6062 174.046 99.574C174.035 99.5418 174.024 99.5097 174.021 99.4777C174.017 99.4265 174.009 99.3755 174.001 99.3248C173.998 99.3076 173.995 99.2905 173.992 99.2733L173.99 99.2558L173.986 99.2277C173.985 99.2176 173.983 99.2076 173.982 99.1976C173.951 98.8721 173.91 98.5457 173.869 98.2169L173.854 98.1017C173.852 98.0828 173.849 98.0639 173.846 98.045C173.841 98.0094 173.835 97.9739 173.829 97.9384L173.828 97.9373L173.828 97.9368C173.821 97.8914 173.813 97.8461 173.807 97.801C173.801 97.7534 173.793 97.7057 173.785 97.6581C173.782 97.6343 173.778 97.6106 173.774 97.5868C173.746 97.3845 173.719 97.1833 173.688 96.9799C173.628 96.6046 173.563 96.2292 173.493 95.8528C173.419 95.4655 173.341 95.0782 173.257 94.6899C173.217 94.5078 173.173 94.3258 173.13 94.1438L173.087 93.9629L173.073 93.9008C173.065 93.8642 173.056 93.8275 173.047 93.7909C173.038 93.7529 173.03 93.7153 173.021 93.6777L173.021 93.6774L173.021 93.677C173.009 93.625 172.998 93.5731 172.985 93.5205C172.888 93.1267 172.784 92.733 172.674 92.3392C172.654 92.2638 172.632 92.1889 172.609 92.1139L172.609 92.1123C172.597 92.0726 172.585 92.0329 172.574 91.993C172.551 91.913 172.527 91.8318 172.504 91.7507C172.488 91.6985 172.473 91.6461 172.458 91.5938L172.445 91.5481L172.445 91.547C172.408 91.4187 172.372 91.2902 172.332 91.1622C172.214 90.7782 172.092 90.3942 171.964 90.0123C171.838 89.6337 171.707 89.2551 171.57 88.8754C171.491 88.6569 171.409 88.4384 171.327 88.2198L180.171 83.0642ZM174.366 101.442L174.617 101.292C174.619 101.317 174.621 101.342 174.621 101.368V101.418C174.621 101.423 174.552 101.427 174.486 101.432L174.486 101.432H174.486C174.457 101.434 174.428 101.435 174.406 101.437C174.386 101.439 174.371 101.441 174.366 101.442ZM174.364 101.443L174.366 101.442C174.365 101.443 174.364 101.443 174.364 101.443ZM183.916 95.6483C183.912 95.523 183.906 95.3967 183.899 95.2704C183.896 95.22 183.894 95.1696 183.891 95.1193C183.888 95.0512 183.886 94.983 183.882 94.9149L183.879 94.8623L183.877 94.8002L183.877 94.7982V94.7979C183.875 94.7499 183.873 94.702 183.87 94.6542C183.869 94.625 183.867 94.5958 183.865 94.5665C183.844 94.2042 183.814 93.8418 183.779 93.4794C183.745 93.1148 183.705 92.7503 183.658 92.3836C183.611 92.0103 183.558 91.6371 183.499 91.2596C183.439 90.8853 183.375 90.5099 183.304 90.1335C183.231 89.7462 183.152 89.3589 183.068 88.9706C182.984 88.5812 182.894 88.1917 182.798 87.8012C182.699 87.4075 182.596 87.0137 182.487 86.6199C182.378 86.2273 182.265 85.8357 182.146 85.443C182.027 85.059 181.905 84.6749 181.777 84.2931C181.651 83.9134 181.518 83.5358 181.382 83.1583C181.32 82.9846 181.254 82.8109 181.188 82.6372L181.139 82.506L181.144 82.5038L180.975 82.0668L180.971 82.0596L180.97 82.0557L180.968 82.0527L180.746 81.4783L180.74 81.4816C180.712 81.4139 180.685 81.3461 180.658 81.2782L180.611 81.1606L180.584 81.0953C180.57 81.0592 180.555 81.0232 180.54 80.9872L180.087 79.926C179.93 79.5668 179.766 79.2099 179.6 78.8529C179.416 78.4591 179.226 78.0686 179.034 77.6803L178.824 77.2735C178.668 76.9631 178.509 76.6526 178.346 76.3443C178.194 76.0568 178.032 75.7734 177.871 75.491L177.852 75.4583L177.255 74.3928C177.146 74.2061 177.03 74.0239 176.914 73.8422L176.883 73.7935L176.484 73.1553C176.244 72.7637 176.004 72.3721 175.697 71.9026L175.609 71.7619C175.155 71.0815 174.687 70.413 174.205 69.7564C173.882 69.3182 173.554 68.8845 173.219 68.4582C172.947 68.1132 172.672 67.7724 172.363 67.3992C172.082 67.0584 171.796 66.7231 171.506 66.3921C171.222 66.0676 170.934 65.7474 170.644 65.4347L170.23 64.9966C170.065 64.8224 169.901 64.6472 169.735 64.4784C169.427 64.1626 169.114 63.8532 168.798 63.5492L167.822 62.6384C167.495 62.343 167.165 62.0542 166.833 61.773L165.841 60.9616C165.518 60.7053 165.193 60.4554 164.865 60.2152C164.64 60.0476 164.411 59.8875 164.148 59.7036L164.015 59.6084L163.711 60.0551L163.896 59.5229C163.581 59.3065 163.267 59.0978 162.949 58.8944C162.636 58.6954 162.32 58.5017 162.004 58.3146L68.0926 3.93445C67.8553 3.79706 67.618 3.66401 67.3829 3.53636C67.0755 3.36869 66.7692 3.20967 66.4672 3.06038C66.314 2.98358 66.163 2.91326 66.0131 2.84403L65.8179 2.75316L65.5083 3.20534L65.6658 2.68069L65.559 2.62984C65.2559 2.49462 64.9572 2.36806 64.6616 2.24906C64.3564 2.12574 64.0533 2.01108 63.7546 1.90723L63.6467 1.87153L63.4838 2.38645L63.513 1.82718L63.349 2.34209L63.3868 1.78607C63.2077 1.72441 63.0287 1.66491 62.8518 1.61082C62.5379 1.51563 62.2273 1.42909 61.9199 1.35336L60.9923 1.14567C60.658 1.08076 60.3269 1.02559 59.9979 0.981239C59.8804 0.965473 59.7636 0.954163 59.6474 0.942914L59.5416 0.93256L58.9894 0.878472C58.6497 0.854673 58.3142 0.842773 57.9842 0.842773C57.8688 0.843855 57.7404 0.848182 57.6207 0.855755L56.9703 0.887126C56.8905 0.889289 56.8107 0.892534 56.7331 0.899025C56.2833 0.941214 55.8422 1.00504 55.3859 1.09807C55.3238 1.11135 55.2626 1.12945 55.1298 1.16877L55.1055 1.17596C54.6158 1.28738 54.206 1.39123 53.8026 1.53618L53.4499 1.67897C52.8793 1.90398 52.3012 2.14089 51.8525 2.40159L41.9566 8.12086V8.12302C37.6423 10.6186 35.3892 15.7938 35.3687 22.7052L34.7733 248.177C34.7345 262.297 44.6886 279.555 56.9401 286.648L150.642 340.901C154.197 342.961 157.645 344 160.759 344C162.946 344 165.108 343.486 166.897 342.453C166.9 342.451 166.91 342.45 166.924 342.448L166.952 342.445L166.983 342.442C167.027 342.438 167.071 342.433 167.071 342.429V342.432L176.753 336.711C177.144 336.482 177.487 336.208 177.902 335.875L177.903 335.874L177.903 335.874L178.019 335.781C178.071 335.739 178.112 335.696 178.153 335.653C178.185 335.619 178.218 335.584 178.257 335.549L178.346 335.456C178.645 335.193 178.923 334.917 179.249 334.566C179.353 334.457 179.451 334.345 179.55 334.229C179.865 333.858 180.162 333.463 180.483 332.986C180.515 332.943 180.547 332.9 180.609 332.807C180.923 332.313 181.212 331.787 181.494 331.186L181.566 331.014C181.723 330.667 181.875 330.318 182.013 329.949C182.023 329.923 182.033 329.897 182.042 329.87C182.052 329.841 182.062 329.812 182.071 329.783C182.089 329.73 182.106 329.677 182.123 329.623L182.124 329.622L182.14 329.572L182.408 328.754C182.518 328.379 182.619 327.994 182.708 327.598L182.93 326.494C182.991 326.141 183.045 325.782 183.089 325.42C183.108 325.27 183.123 325.118 183.137 324.965L183.201 324.335C183.229 323.989 183.252 323.636 183.268 323.278C183.282 322.922 183.29 322.561 183.293 322.129L183.93 96.6598C183.931 96.3244 183.926 95.988 183.916 95.6494V95.6483ZM65.5083 3.20534L65.4209 3.76136L65.559 3.82519C65.7014 3.89118 65.8427 3.95716 65.9883 4.02964C66.2806 4.1746 66.5739 4.32713 66.8695 4.48723C67.096 4.61055 67.3235 4.73819 67.5533 4.87125L161.244 59.1226L161.457 59.2481C161.763 59.4277 162.066 59.6148 162.369 59.8074C162.677 60.0043 162.982 60.2066 163.335 60.45L163.566 60.6144L163.627 60.6578C163.827 60.7979 164.026 60.938 164.225 61.086C164.544 61.3208 164.86 61.562 165.175 61.8119L166.137 62.5994C166.462 62.8742 166.781 63.1544 167.099 63.4421L168.052 64.3302C168.36 64.6266 168.663 64.9285 168.966 65.2368C169.127 65.4012 169.286 65.5699 169.445 65.7387L169.853 66.1682C170.136 66.4754 170.417 66.7891 170.695 67.106C170.979 67.4295 171.259 67.7573 171.564 68.1283C171.838 68.4572 172.107 68.7903 172.372 69.1279C172.699 69.5454 173.021 69.9684 173.337 70.4C173.809 71.0415 174.268 71.696 174.714 72.3656L174.852 72.5862C175.097 72.9594 175.331 73.3402 175.565 73.7221L175.975 74.3776L176.007 74.4284C176.115 74.5976 176.223 74.7672 176.325 74.9412L176.916 75.9949L176.954 76.0613L176.955 76.0628C177.104 76.3247 177.253 76.5869 177.394 76.8538C177.532 77.1105 177.663 77.3687 177.795 77.6278L177.795 77.6295L177.797 77.632L177.797 77.6333L177.864 77.7646L178.068 78.1616C178.258 78.5435 178.443 78.9264 178.623 79.3116C178.786 79.661 178.946 80.0115 179.12 80.4074L179.166 80.5156L179.658 80.2927L179.219 80.6389L179.544 81.4015C179.63 81.6092 179.715 81.8169 179.798 82.0246L179.784 82.0333L179.786 82.0376L170.919 87.2062L170.864 87.0693L170.817 86.9504C170.68 86.6095 170.544 86.2686 170.396 85.9276L170.339 85.7956C169.971 84.954 169.563 84.0875 169.128 83.2167L169.012 82.9917C168.658 82.2929 168.28 81.6049 167.895 80.9223L167.569 80.3392C167.409 80.0645 167.241 79.794 167.073 79.5247L166.661 78.8594L166.62 78.7924C166.396 78.4286 166.173 78.0651 165.938 77.7084C165.438 76.9511 164.927 76.2037 164.393 75.4767C163.808 74.6805 163.198 73.8995 162.561 73.1304C161.973 72.4197 161.342 71.7035 160.684 70.9971L160.533 70.8392C159.929 70.1988 159.31 69.5779 158.691 68.9948L158.469 68.7871C157.849 68.2094 157.213 67.6534 156.581 67.1331L156.485 67.0541L156.474 67.0456C156.453 67.0277 156.43 67.0091 156.408 66.9914L156.357 66.9492C155.688 66.4072 155.008 65.8945 154.335 65.4228L154.306 65.4023C154.268 65.3752 154.231 65.3482 154.193 65.3222C153.442 64.8008 152.694 64.3238 151.972 63.9062L58.2808 9.65372C54.207 7.29548 50.2875 6.2797 46.8372 6.62479L52.477 3.33731C52.8782 3.10365 53.3248 2.89055 53.8425 2.68718L54.0302 2.60929L53.8446 2.10194L54.165 2.5552C54.5187 2.42864 54.893 2.33344 55.3471 2.22959C55.4021 2.21661 55.456 2.20038 55.5089 2.18416L55.6243 2.1517C56.0169 2.07274 56.4203 2.01432 56.8312 1.97646L57.6876 1.93535C57.7652 1.92994 57.8429 1.92562 57.9238 1.92453C58.2517 1.92778 58.5796 1.93427 58.9927 1.96564L59.4435 2.01108C59.5805 2.02297 59.7175 2.03487 59.8566 2.05435C60.1629 2.09545 60.4725 2.1463 60.7863 2.20796L61.6589 2.40159C61.949 2.47515 62.2435 2.55628 62.539 2.64607C62.6833 2.69024 62.8292 2.73931 63.0256 2.80534L63.0258 2.8054L63.1182 2.83646L63.2897 2.3237L63.2465 2.87865L63.4245 2.36806L63.3965 2.92733C63.6823 3.02793 63.9692 3.13611 64.2604 3.25294C64.5441 3.36652 64.831 3.48876 65.1189 3.61749L65.339 3.12421L65.2818 3.69538L65.5083 3.20534ZM195.149 101.183L195.103 117.116C195.102 117.505 195.423 118.041 195.777 118.237L216.723 129.884C216.779 129.916 216.822 129.93 216.85 129.935C216.845 129.926 216.846 129.908 216.848 129.882C216.849 129.871 216.85 129.859 216.85 129.846L216.851 129.832L216.851 129.817L216.897 113.886C216.898 113.495 216.578 112.959 216.223 112.763L195.278 101.116C195.22 101.085 195.177 101.071 195.15 101.065C195.155 101.074 195.154 101.092 195.152 101.118L195.151 101.135L195.15 101.155L195.149 101.166L195.149 101.183ZM217.397 130.868C217.238 130.957 217.061 131 216.875 131C216.647 131 216.405 130.934 216.171 130.804L195.225 119.157C194.525 118.767 193.997 117.888 194 117.112L194.046 101.18C194.049 100.709 194.251 100.326 194.603 100.131C194.955 99.9363 195.403 99.9597 195.83 100.197L216.775 111.843C217.476 112.233 218.003 113.112 218 113.889L217.954 129.821C217.951 130.292 217.749 130.674 217.397 130.868ZM5.45082 179.731L18.8589 187.718L18.89 176.875C18.89 176.675 18.7201 176.37 18.5514 176.27L5.14223 168.282L5.11004 179.127C5.11004 179.325 5.28209 179.631 5.45082 179.731ZM5.48523 167.164L19.1064 175.278C19.6181 175.582 20.0011 176.271 20 176.879L19.97 187.978C19.9689 188.38 19.8013 188.708 19.5105 188.881C19.3762 188.96 19.2274 189 19.072 189C18.89 189 18.699 188.945 18.5159 188.836L4.8958 180.724C4.38408 180.418 3.99889 179.73 4 179.123L4.03109 168.024C4.0322 167.622 4.19981 167.293 4.49175 167.119C4.78147 166.947 5.14556 166.962 5.48523 167.164ZM224.724 158.905L224.724 158.909L224.724 158.917C224.724 158.922 224.725 158.926 224.727 158.929C224.701 158.924 224.659 158.91 224.603 158.878L203.884 147.206C203.533 147.009 203.216 146.474 203.217 146.083L203.263 130.115C203.263 130.052 203.272 130.011 203.264 129.996C203.292 130.001 203.334 130.015 203.391 130.048L224.109 141.719C224.459 141.916 224.776 142.453 224.775 142.845L224.728 158.813L224.728 158.832C224.727 158.842 224.727 158.852 224.726 158.86L224.725 158.877L224.725 158.877L224.724 158.894L224.724 158.905ZM224.655 140.798L203.936 129.125C203.513 128.888 203.072 128.864 202.722 129.06C202.375 129.255 202.175 129.638 202.172 130.111L202.127 146.079C202.123 146.857 202.645 147.738 203.339 148.128L224.057 159.8C224.289 159.931 224.527 159.997 224.753 159.997C224.937 159.997 225.114 159.954 225.27 159.865C225.618 159.669 225.818 159.287 225.819 158.816L225.866 142.848C225.869 142.07 225.348 141.188 224.655 140.798ZM1.09654 149.367L1.06667 160.189C1.06667 160.388 1.23094 160.693 1.39414 160.793L14.2784 168.762L14.3083 157.942C14.3083 157.743 14.1451 157.438 13.9819 157.337L1.09654 149.367ZM14.9045 169.925C14.7755 170.004 14.6325 170.044 14.4832 170.044C14.3083 170.044 14.1248 169.989 13.9488 169.879L0.860802 161.783C0.369069 161.478 -0.00106437 160.791 2.29959e-06 160.185L0.0288023 149.11C0.029869 148.708 0.192002 148.378 0.470402 148.206C0.752002 148.034 1.09974 148.049 1.4272 148.252L14.5152 156.348C15.0069 156.652 15.376 157.338 15.3749 157.945L15.3461 169.022C15.3451 169.423 15.1829 169.752 14.9045 169.925ZM91.0441 52.0873C90.88 52.0873 90.7345 52.1231 90.6119 52.1925C90.2847 52.379 90.0954 52.8335 90.0943 53.4398C90.0899 54.9397 91.1952 56.8421 92.5083 57.5926L117.021 71.6206C117.556 71.9265 118.057 71.997 118.386 71.8082C118.715 71.6206 118.904 71.1618 118.906 70.5501C118.91 69.0556 117.805 67.1575 116.491 66.407L91.9787 52.3801C91.6405 52.1871 91.3188 52.0873 91.0441 52.0873ZM116.474 72.5599L91.9612 58.533C90.2957 57.5796 88.9935 55.341 89 53.4365C89.0022 52.4192 89.3819 51.6437 90.0659 51.2522C90.7553 50.8606 91.6296 50.9268 92.5258 51.4409L117.038 65.4678C118.704 66.4211 120.004 68.6543 120 70.5534C119.998 71.5772 119.618 72.357 118.932 72.7486C118.637 72.9167 118.308 73.0002 117.956 73.0002C117.49 73.0002 116.986 72.8527 116.474 72.5599ZM108.977 299.476C107.746 300.178 106.068 299.991 104.256 298.959C100.309 296.711 97.1067 291.239 97.1201 286.762C97.1257 284.722 97.8011 283.218 99.0231 282.524C99.5148 282.244 100.077 282.106 100.691 282.106C101.615 282.106 102.654 282.42 103.744 283.041C107.692 285.291 110.893 290.762 110.88 295.238C110.874 297.278 110.199 298.782 108.977 299.476ZM104.304 282.085C102.13 280.845 100.057 280.663 98.4641 281.566C96.8815 282.464 96.0068 284.309 96 286.759C95.9866 291.589 99.4386 297.491 103.696 299.915C104.96 300.637 106.192 301 107.314 301C108.12 301 108.869 300.812 109.536 300.434C111.118 299.536 111.993 297.691 112 295.24C112.013 290.413 108.561 284.51 104.304 282.085ZM164.979 306.845C165.22 306.707 165.36 306.361 165.361 305.892L165.903 117.806C165.906 116.601 165.009 115.071 163.943 114.465L44.0655 46.3138C43.7979 46.1604 43.5456 46.0826 43.334 46.0826C43.2155 46.0826 43.1102 46.1075 43.0225 46.1572C42.7801 46.2943 42.6397 46.641 42.6386 47.1086L42.0968 235.194C42.0935 236.401 42.9929 237.931 44.0578 238.538L163.934 306.688C164.353 306.926 164.731 306.981 164.979 306.845ZM44.6139 45.3774L164.492 113.529C165.903 114.331 167.005 116.211 167 117.81L166.458 305.895C166.455 306.771 166.124 307.442 165.525 307.78C165.265 307.928 164.975 308 164.668 308C164.264 308 163.828 307.874 163.386 307.623L43.5094 239.472C42.099 238.671 40.9967 236.79 41 235.192L41.5418 47.1054C41.5451 46.2295 41.8763 45.5599 42.4752 45.2208C43.0773 44.8806 43.8352 44.9346 44.6139 45.3774ZM178 134C177.287 134 177 134.63 177 135.407V177.594C177 178.371 177.287 179 178 179C178.713 179 179 178.371 179 177.594V135.407C179 134.63 178.713 134 178 134ZM177 188.407C177 187.63 177.287 187 178 187C178.713 187 179 187.63 179 188.407V230.594C179 231.371 178.713 232 178 232C177.287 232 177 231.371 177 230.594V188.407ZM178 271C177.287 271 177 271.613 177 272.369V293.633C177 294.388 177.287 295 178 295C178.713 295 179 294.388 179 293.633V272.369C179 271.613 178.713 271 178 271ZM153.406 203.809C153.707 203.637 153.88 203.21 153.881 202.639L153.911 191.917C153.916 190.502 152.877 188.704 151.644 187.991L53.8587 131.372C53.5419 131.189 53.2404 131.095 52.9846 131.095C52.8365 131.095 52.7037 131.127 52.5916 131.191C52.2933 131.364 52.1202 131.786 52.118 132.352L52.0886 143.073C52.0843 144.493 53.1228 146.296 54.3562 147.01L152.14 203.629C152.642 203.92 153.104 203.986 153.406 203.809ZM54.403 130.427L152.188 187.044C153.77 187.96 155.005 190.102 155 191.92L154.969 202.641C154.967 203.627 154.605 204.378 153.949 204.756C153.668 204.919 153.352 205 153.014 205C152.569 205 152.087 204.857 151.596 204.573L53.8119 147.956C52.2302 147.04 50.9957 144.894 51 143.07L51.0294 132.348C51.0327 131.369 51.3941 130.622 52.0484 130.245C52.707 129.865 53.5441 129.929 54.403 130.427ZM153.881 225.648C153.88 226.215 153.708 226.639 153.411 226.81C153.106 226.985 152.643 226.918 152.14 226.627L54.3562 170.009C53.1228 169.296 52.0854 167.497 52.0886 166.082L52.118 155.362C52.1202 154.791 52.2944 154.364 52.5938 154.19C52.7059 154.126 52.8387 154.094 52.9857 154.094C53.2415 154.094 53.5419 154.188 53.8587 154.371L151.644 210.988C152.877 211.703 153.916 213.507 153.911 214.927L153.881 225.648ZM152.188 210.044L54.403 153.426C53.5441 152.929 52.7081 152.865 52.0505 153.245C51.3952 153.622 51.0327 154.373 51.0294 155.358L51 166.08C50.9957 167.899 52.2302 170.04 53.8119 170.955L151.596 227.572C152.089 227.857 152.572 228 153.02 228C153.356 228 153.672 227.919 153.954 227.757C154.606 227.38 154.967 226.631 154.97 225.65L155 214.929C155.004 213.106 153.77 210.96 152.188 210.044ZM119.395 244.594C120.361 244.046 120.895 242.845 120.9 241.213L120.907 238.783C120.918 235.164 118.328 230.741 115.136 228.922L83.373 210.831C82.4972 210.332 81.663 210.08 80.925 210.08C80.4385 210.08 79.9946 210.189 79.6065 210.409C78.64 210.958 78.1043 212.156 78.0999 213.782L78.0934 216.212C78.0824 219.831 80.6758 224.255 83.8726 226.078L115.636 244.169C117.085 244.995 118.419 245.148 119.395 244.594ZM83.9196 209.898L115.683 227.989C119.177 229.979 122.011 234.822 122 238.785L121.993 241.217C121.987 243.25 121.258 244.781 119.94 245.529C119.385 245.844 118.759 246 118.088 246C117.157 246 116.136 245.699 115.089 245.102L83.326 227.011C79.8263 225.017 76.9891 220.172 77 216.21L77.0066 213.779C77.0121 211.752 77.7424 210.223 79.062 209.474C80.3893 208.72 82.1146 208.87 83.9196 209.898Z" fill="#DADFEB"/>
</svg>
