<svg width="186" height="182" viewBox="0 0 186 182" fill="none" xmlns="http://www.w3.org/2000/svg">
<path fill-rule="evenodd" clip-rule="evenodd" d="M1.24574 50.653L92.7411 0L92.991 0.138578L184.239 50.654L184.741 50.3768V50.9311L185.242 51.2092L184.741 51.4874V80.1989L184.489 80.3385L93.2449 130.853V131.408L92.7441 131.13L92.2413 131.408V130.852L0.743932 80.198V51.4864L0.242125 51.2083L0.743932 50.9311V50.3749L1.24574 50.653ZM92.7411 1.11055L2.24835 51.2083L92.7431 101.307L183.235 51.2092L92.7411 1.11055ZM1.74754 52.0417V79.6427L92.2413 129.74V102.14L45.7018 76.3755L1.74754 52.0417ZM183.737 52.0436L93.2449 102.14V129.74L183.737 79.6436V52.0436ZM92.7406 14.54L27.2489 50.8363L92.7426 87.1335L158.235 50.8372L92.7406 14.54ZM92.7406 13.4286L92.9915 13.5673L160.242 50.8372L92.7426 88.2449L92.4918 88.1062L25.2421 50.8363L92.7406 13.4286ZM7.24442 64.9782L85.2398 108.351V116.307L7.24442 72.9341V64.9782ZM6.24213 73.4911L86.2421 117.98V107.794L6.24213 63.3061V73.4911ZM106.245 111.519L169.239 76.6668V72.644L106.245 107.496V111.519ZM105.242 106.942L170.242 70.9796V77.2213L105.242 113.184V106.942ZM183.4 129.692L92.7466 179.624V152.113L183.4 102.181V129.692ZM91.7412 179.624L1.08584 129.691V102.18L45.1176 126.433L91.7412 152.114V179.624ZM184.405 101.073V101.013C184.256 100.934 184.109 100.853 183.979 100.755L183.903 100.797L171.152 93.774C170.807 93.9572 170.458 94.1347 170.106 94.3044L182.897 101.351L92.2439 151.283L1.58854 101.35L14.0626 94.4781C13.9373 94.4017 13.8116 94.3256 13.6858 94.2494L13.6837 94.2481L13.6823 94.2473C13.4901 94.131 13.2977 94.0146 13.1065 93.8968L1.24168 100.433C1.21943 100.457 1.19914 100.483 1.17891 100.508C1.14884 100.546 1.11888 100.584 1.08282 100.617C0.883976 100.801 0.677012 100.976 0.47005 101.152L0.469932 101.152C0.312771 101.285 0.155612 101.418 0.00201081 101.555C0.00150811 101.559 0.00125676 101.564 0.00100541 101.568C0.000754054 101.573 0.000502703 101.577 0 101.582L0.0804324 101.626V130.244L91.7412 180.732V181.286L92.2439 181.009L92.7466 181.286V180.732L184.154 130.384L184.405 130.245V101.628L184.548 101.549C184.53 101.411 184.526 101.277 184.527 101.141L184.405 101.073ZM26.1439 100.997L26.2591 101.047C26.3533 101.119 26.4543 101.182 26.5553 101.245C26.5944 101.269 26.6336 101.294 26.6723 101.318L26.616 101.349L92.2438 137.498L157.859 101.356C158.237 101.194 158.611 101.027 158.978 100.853L159.88 101.35L92.2438 138.605L91.9925 138.467L24.6052 101.349L25.6448 100.777C25.8099 100.852 25.977 100.925 26.1439 100.997ZM7.29462 115.038L85.5322 158.131V166.036L7.29462 122.943V115.038ZM6.28921 123.496L86.5377 167.698V157.578L6.28921 113.377V123.496ZM106.496 161.037L169.651 126.25V122.235L106.496 157.022V161.037ZM105.49 156.468L170.657 120.574V126.804L105.49 162.698V156.468Z" fill="#D7DDEA"/>
</svg>
